<svg width="512" height="512" viewBox="0 0 512 512" fill="none" xmlns="http://www.w3.org/2000/svg">
  <!-- Calendar background -->
  <rect x="32" y="96" width="384" height="320" rx="32" fill="#e5e7eb" stroke="#000" stroke-width="8"/>
  
  <!-- Calendar header -->
  <rect x="32" y="96" width="384" height="80" rx="32" fill="#ef4444" stroke="#000" stroke-width="8"/>
  
  <!-- Calendar holes/rings -->
  <ellipse cx="128" cy="64" rx="24" ry="40" fill="#000"/>
  <ellipse cx="128" cy="64" rx="12" ry="32" fill="#e5e7eb"/>
  <ellipse cx="320" cy="64" rx="24" ry="40" fill="#000"/>
  <ellipse cx="320" cy="64" rx="12" ry="32" fill="#e5e7eb"/>
  
  <!-- Calendar grid lines -->
  <line x1="48" y1="208" x2="400" y2="208" stroke="#000" stroke-width="4"/>
  
  <!-- Calendar grid squares -->
  <rect x="64" y="224" width="32" height="32" rx="8" fill="#1e40af" stroke="#000" stroke-width="2"/>
  <rect x="112" y="224" width="32" height="32" rx="8" fill="#1e40af" stroke="#000" stroke-width="2"/>
  <rect x="160" y="224" width="32" height="32" rx="8" fill="#1e40af" stroke="#000" stroke-width="2"/>
  <rect x="208" y="224" width="32" height="32" rx="8" fill="#1e40af" stroke="#000" stroke-width="2"/>
  <rect x="256" y="224" width="32" height="32" rx="8" fill="#1e40af" stroke="#000" stroke-width="2"/>
  <rect x="304" y="224" width="32" height="32" rx="8" fill="#1e40af" stroke="#000" stroke-width="2"/>
  
  <rect x="64" y="272" width="32" height="32" rx="8" fill="#1e40af" stroke="#000" stroke-width="2"/>
  <rect x="112" y="272" width="32" height="32" rx="8" fill="#1e40af" stroke="#000" stroke-width="2"/>
  <rect x="160" y="272" width="32" height="32" rx="8" fill="#1e40af" stroke="#000" stroke-width="2"/>
  <rect x="208" y="272" width="32" height="32" rx="8" fill="#1e40af" stroke="#000" stroke-width="2"/>
  
  <rect x="64" y="320" width="32" height="32" rx="8" fill="#1e40af" stroke="#000" stroke-width="2"/>
  <rect x="112" y="320" width="32" height="32" rx="8" fill="#1e40af" stroke="#000" stroke-width="2"/>
  <rect x="160" y="320" width="32" height="32" rx="8" fill="#1e40af" stroke="#000" stroke-width="2"/>
  
  <!-- Clock circle -->
  <circle cx="352" cy="352" r="128" fill="#60a5fa" stroke="#000" stroke-width="8"/>
  <circle cx="352" cy="352" r="96" fill="#f8fafc" stroke="#000" stroke-width="6"/>
  
  <!-- Clock hands -->
  <line x1="352" y1="352" x2="352" y2="288" stroke="#000" stroke-width="6" stroke-linecap="round"/>
  <line x1="352" y1="352" x2="400" y2="352" stroke="#000" stroke-width="4" stroke-linecap="round"/>
  
  <!-- Clock center dot -->
  <circle cx="352" cy="352" r="8" fill="#fbbf24"/>
</svg>